<mxfile host="app.diagrams.net" modified="2023-08-25T10:58:04.307Z" agent="Mozilla/5.0 (Macintosh; Intel Mac OS X 10.15; rv:109.0) Gecko/20100101 Firefox/116.0" etag="prUC1m_GfFvNWmHS8Gpj" version="21.6.2" type="github">
  <diagram name="第 1 页" id="eKoaR9xkSVJ6A1xmw_4-">
    <mxGraphModel dx="1409" dy="736" grid="1" gridSize="10" guides="1" tooltips="1" connect="1" arrows="1" fold="1" page="1" pageScale="1" pageWidth="827" pageHeight="1169" math="0" shadow="0">
      <root>
        <mxCell id="0" />
        <mxCell id="1" parent="0" />
        <mxCell id="QNyW_d6G2BNQHW1QiEly-29" value="API Server" style="rounded=1;whiteSpace=wrap;html=1;fillColor=#ffff88;strokeColor=#36393d;" vertex="1" parent="1">
          <mxGeometry x="590" y="470" width="160" height="40" as="geometry" />
        </mxCell>
        <mxCell id="QNyW_d6G2BNQHW1QiEly-30" value="" style="endArrow=classic;html=1;rounded=0;fillColor=#cce5ff;strokeColor=#36393d;" edge="1" parent="1">
          <mxGeometry width="50" height="50" relative="1" as="geometry">
            <mxPoint x="640" y="580" as="sourcePoint" />
            <mxPoint x="640" y="520" as="targetPoint" />
          </mxGeometry>
        </mxCell>
        <mxCell id="QNyW_d6G2BNQHW1QiEly-31" value="" style="endArrow=classic;startArrow=classic;html=1;rounded=0;" edge="1" parent="1">
          <mxGeometry width="50" height="50" relative="1" as="geometry">
            <mxPoint x="700" y="580" as="sourcePoint" />
            <mxPoint x="700" y="520" as="targetPoint" />
          </mxGeometry>
        </mxCell>
        <mxCell id="QNyW_d6G2BNQHW1QiEly-32" value="list" style="text;html=1;align=center;verticalAlign=middle;resizable=0;points=[];autosize=1;strokeColor=none;fillColor=none;" vertex="1" parent="1">
          <mxGeometry x="600" y="538" width="40" height="30" as="geometry" />
        </mxCell>
        <mxCell id="QNyW_d6G2BNQHW1QiEly-33" value="watch events" style="text;html=1;align=center;verticalAlign=middle;resizable=0;points=[];autosize=1;strokeColor=none;fillColor=none;" vertex="1" parent="1">
          <mxGeometry x="700" y="538" width="90" height="30" as="geometry" />
        </mxCell>
        <mxCell id="QNyW_d6G2BNQHW1QiEly-35" value="Event Handler" style="rounded=1;whiteSpace=wrap;html=1;fillColor=#dae8fc;strokeColor=#6c8ebf;" vertex="1" parent="1">
          <mxGeometry x="590" y="590" width="160" height="40" as="geometry" />
        </mxCell>
        <mxCell id="QNyW_d6G2BNQHW1QiEly-37" value="" style="rounded=0;whiteSpace=wrap;html=1;fillColor=#dae8fc;strokeColor=#6c8ebf;" vertex="1" parent="1">
          <mxGeometry x="590" y="700" width="40" height="40" as="geometry" />
        </mxCell>
        <mxCell id="QNyW_d6G2BNQHW1QiEly-40" value="" style="rounded=0;whiteSpace=wrap;html=1;fillColor=#dae8fc;strokeColor=#6c8ebf;" vertex="1" parent="1">
          <mxGeometry x="630" y="700" width="40" height="40" as="geometry" />
        </mxCell>
        <mxCell id="QNyW_d6G2BNQHW1QiEly-41" value="" style="rounded=0;whiteSpace=wrap;html=1;fillColor=#dae8fc;strokeColor=#6c8ebf;" vertex="1" parent="1">
          <mxGeometry x="670" y="700" width="40" height="40" as="geometry" />
        </mxCell>
        <mxCell id="QNyW_d6G2BNQHW1QiEly-42" value="" style="rounded=0;whiteSpace=wrap;html=1;fillColor=#dae8fc;strokeColor=#6c8ebf;" vertex="1" parent="1">
          <mxGeometry x="710" y="700" width="40" height="40" as="geometry" />
        </mxCell>
        <mxCell id="QNyW_d6G2BNQHW1QiEly-43" value="" style="shape=flexArrow;endArrow=classic;html=1;rounded=0;" edge="1" parent="1">
          <mxGeometry width="50" height="50" relative="1" as="geometry">
            <mxPoint x="669" y="640" as="sourcePoint" />
            <mxPoint x="669" y="690" as="targetPoint" />
          </mxGeometry>
        </mxCell>
        <mxCell id="QNyW_d6G2BNQHW1QiEly-44" value="worker queue" style="text;html=1;align=center;verticalAlign=middle;resizable=0;points=[];autosize=1;strokeColor=none;fillColor=none;" vertex="1" parent="1">
          <mxGeometry x="620" y="705" width="100" height="30" as="geometry" />
        </mxCell>
        <mxCell id="QNyW_d6G2BNQHW1QiEly-47" value="&lt;div&gt;自定义worker&lt;/div&gt;&lt;div&gt;(wc-operator)&lt;br&gt;&lt;/div&gt;" style="ellipse;whiteSpace=wrap;html=1;" vertex="1" parent="1">
          <mxGeometry x="607.5" y="816" width="115" height="80" as="geometry" />
        </mxCell>
        <mxCell id="QNyW_d6G2BNQHW1QiEly-50" value="消费" style="text;html=1;align=center;verticalAlign=middle;resizable=0;points=[];autosize=1;strokeColor=none;fillColor=none;" vertex="1" parent="1">
          <mxGeometry x="675" y="764" width="50" height="30" as="geometry" />
        </mxCell>
        <mxCell id="QNyW_d6G2BNQHW1QiEly-55" value="wc不存在" style="rounded=0;whiteSpace=wrap;html=1;" vertex="1" parent="1">
          <mxGeometry x="980" y="786" width="70" height="40" as="geometry" />
        </mxCell>
        <mxCell id="QNyW_d6G2BNQHW1QiEly-57" value="" style="endArrow=classic;html=1;rounded=0;" edge="1" parent="1">
          <mxGeometry width="50" height="50" relative="1" as="geometry">
            <mxPoint x="1070" y="804.1" as="sourcePoint" />
            <mxPoint x="1110" y="804" as="targetPoint" />
          </mxGeometry>
        </mxCell>
        <mxCell id="QNyW_d6G2BNQHW1QiEly-58" value="删除相关资源（pvc/svc/deploy/configmap等）" style="rounded=0;whiteSpace=wrap;html=1;" vertex="1" parent="1">
          <mxGeometry x="1120" y="780" width="250" height="46" as="geometry" />
        </mxCell>
        <mxCell id="QNyW_d6G2BNQHW1QiEly-59" value="wc存在" style="rounded=0;whiteSpace=wrap;html=1;" vertex="1" parent="1">
          <mxGeometry x="980" y="890" width="70" height="40" as="geometry" />
        </mxCell>
        <mxCell id="QNyW_d6G2BNQHW1QiEly-64" value="查询Cache中的wc " style="shape=parallelogram;perimeter=parallelogramPerimeter;whiteSpace=wrap;html=1;fixedSize=1;fillColor=#ffe6cc;strokeColor=#d79b00;" vertex="1" parent="1">
          <mxGeometry x="800" y="835" width="120" height="40" as="geometry" />
        </mxCell>
        <mxCell id="QNyW_d6G2BNQHW1QiEly-65" value="" style="endArrow=classic;html=1;rounded=0;" edge="1" parent="1">
          <mxGeometry width="50" height="50" relative="1" as="geometry">
            <mxPoint x="740" y="855" as="sourcePoint" />
            <mxPoint x="790" y="855" as="targetPoint" />
            <Array as="points">
              <mxPoint x="760" y="855" />
            </Array>
          </mxGeometry>
        </mxCell>
        <mxCell id="QNyW_d6G2BNQHW1QiEly-69" value="" style="endArrow=classic;html=1;rounded=0;entryX=0;entryY=0.5;entryDx=0;entryDy=0;" edge="1" parent="1" target="QNyW_d6G2BNQHW1QiEly-55">
          <mxGeometry width="50" height="50" relative="1" as="geometry">
            <mxPoint x="920" y="856" as="sourcePoint" />
            <mxPoint x="960" y="830" as="targetPoint" />
          </mxGeometry>
        </mxCell>
        <mxCell id="QNyW_d6G2BNQHW1QiEly-70" value="" style="endArrow=classic;html=1;rounded=0;entryX=0;entryY=0.5;entryDx=0;entryDy=0;" edge="1" parent="1" target="QNyW_d6G2BNQHW1QiEly-59">
          <mxGeometry width="50" height="50" relative="1" as="geometry">
            <mxPoint x="920" y="860" as="sourcePoint" />
            <mxPoint x="960" y="880" as="targetPoint" />
          </mxGeometry>
        </mxCell>
        <mxCell id="QNyW_d6G2BNQHW1QiEly-71" value="更新本地Cache  " style="shape=parallelogram;perimeter=parallelogramPerimeter;whiteSpace=wrap;html=1;fixedSize=1;fillColor=#ffe6cc;strokeColor=#d79b00;" vertex="1" parent="1">
          <mxGeometry x="830" y="590" width="120" height="40" as="geometry" />
        </mxCell>
        <mxCell id="QNyW_d6G2BNQHW1QiEly-72" value="" style="endArrow=classic;html=1;rounded=0;" edge="1" parent="1">
          <mxGeometry width="50" height="50" relative="1" as="geometry">
            <mxPoint x="770" y="610" as="sourcePoint" />
            <mxPoint x="820" y="610" as="targetPoint" />
            <Array as="points">
              <mxPoint x="790" y="610" />
            </Array>
          </mxGeometry>
        </mxCell>
        <mxCell id="QNyW_d6G2BNQHW1QiEly-73" value="WC" style="ellipse;whiteSpace=wrap;html=1;" vertex="1" parent="1">
          <mxGeometry x="605" y="320" width="120" height="80" as="geometry" />
        </mxCell>
        <mxCell id="QNyW_d6G2BNQHW1QiEly-75" value="" style="shape=flexArrow;endArrow=classic;html=1;rounded=0;entryX=1;entryY=1;entryDx=0;entryDy=0;" edge="1" parent="1">
          <mxGeometry width="50" height="50" relative="1" as="geometry">
            <mxPoint x="664.5" y="460" as="sourcePoint" />
            <mxPoint x="664.5" y="410" as="targetPoint" />
            <Array as="points">
              <mxPoint x="664.5" y="450" />
            </Array>
          </mxGeometry>
        </mxCell>
        <mxCell id="QNyW_d6G2BNQHW1QiEly-76" value="" style="shape=flexArrow;endArrow=classic;html=1;rounded=0;" edge="1" parent="1">
          <mxGeometry width="50" height="50" relative="1" as="geometry">
            <mxPoint x="669" y="758" as="sourcePoint" />
            <mxPoint x="669" y="808" as="targetPoint" />
          </mxGeometry>
        </mxCell>
        <mxCell id="QNyW_d6G2BNQHW1QiEly-77" value="若相关资源不存在，则新建" style="rounded=0;whiteSpace=wrap;html=1;" vertex="1" parent="1">
          <mxGeometry x="1120" y="860" width="250" height="40" as="geometry" />
        </mxCell>
        <mxCell id="QNyW_d6G2BNQHW1QiEly-78" value="若相关资源存在，则更新(bug：每次更新时加了同步配置模板操作)" style="rounded=0;whiteSpace=wrap;html=1;" vertex="1" parent="1">
          <mxGeometry x="1120" y="930" width="360" height="40" as="geometry" />
        </mxCell>
        <mxCell id="QNyW_d6G2BNQHW1QiEly-80" value="" style="endArrow=classic;html=1;rounded=0;" edge="1" parent="1">
          <mxGeometry width="50" height="50" relative="1" as="geometry">
            <mxPoint x="1060" y="910" as="sourcePoint" />
            <mxPoint x="1110" y="880" as="targetPoint" />
          </mxGeometry>
        </mxCell>
        <mxCell id="QNyW_d6G2BNQHW1QiEly-81" value="" style="endArrow=classic;html=1;rounded=0;" edge="1" parent="1">
          <mxGeometry width="50" height="50" relative="1" as="geometry">
            <mxPoint x="1060" y="920" as="sourcePoint" />
            <mxPoint x="1110" y="950" as="targetPoint" />
          </mxGeometry>
        </mxCell>
      </root>
    </mxGraphModel>
  </diagram>
</mxfile>
